<svg width="16" height="20" viewBox="0 0 16 20" fill="none" xmlns="http://www.w3.org/2000/svg">
<path d="M16 20H0V18.0069C0 15.8144 3.6 14.0206 8 14.0206C12.4 14.0206 16 15.8144 16 18.0069M4 7.04453H12V8.04111C12 10.2336 10.2 12.0274 8 12.0274C5.8 12.0274 4 10.2336 4 8.04111M15 2.06166C14.4 2.06166 14 2.46029 14 3.05824V4.05481H12.5L11.1 1.06509C11 0.865774 10.9 0.666459 10.7 0.566802C10.2 0.0685145 9.4 -0.0311429 8.7 0.267829L8 0.467144L7.3 0.168172C6.6 -0.1308 5.8 -0.0311428 5.3 0.467144C5.1 0.666459 5 0.865774 4.9 1.06509L3.5 4.05481H2V3.05824C2 2.46029 1.6 2.06166 1 2.06166C0.4 2.06166 0 2.46029 0 3.05824V4.05481C0 5.15104 0.9 6.04796 2 6.04796H14C15.1 6.04796 16 5.15104 16 4.05481V3.05824C16 2.55995 15.6 2.06166 15 2.06166Z" fill="white"/>
</svg>
