<svg width="15" height="21" viewBox="0 0 15 21" fill="none" xmlns="http://www.w3.org/2000/svg">
<path d="M11.1879 1.96875C11.1879 3.05566 10.3341 3.9375 9.28179 3.9375C8.22948 3.9375 7.37572 3.05566 7.37572 1.96875C7.37572 0.881836 8.22948 0 9.28179 0C10.3341 0 11.1879 0.881836 11.1879 1.96875ZM9.41283 9.4623L8.65437 12.5918L10.6279 14.6303C10.9853 14.9994 11.1879 15.4998 11.1879 16.0207V19.6875C11.1879 20.4135 10.62 21 9.91714 21C9.21428 21 8.64643 20.4135 8.64643 19.6875V16.2955L5.71187 13.2645C5.08446 12.6164 4.83032 11.6812 5.04078 10.7912L5.85086 7.3459C6.18045 5.94727 7.54647 5.09414 8.8966 5.44277C9.65109 5.63965 10.3103 6.11543 10.7391 6.78398L11.8669 8.53125H13.0939V7.54688C13.0939 7.00137 13.5188 6.5625 14.047 6.5625C14.5751 6.5625 15 7.00137 15 7.54688V9.83555C15 9.83965 15 9.84375 15 9.84375V9.85195V20.0156C15 20.5611 14.5751 21 14.047 21C13.5188 21 13.0939 20.5611 13.0939 20.0156V11.1562H11.5294C10.894 11.1562 10.2984 10.8281 9.94494 10.2785L9.4168 9.4582L9.41283 9.4623ZM2.9719 19.3553L4.40939 13.6992C4.52852 13.8715 4.66353 14.0355 4.81046 14.1873L6.4743 15.9059L5.42596 20.0197C5.24727 20.7211 4.55235 21.1395 3.87331 20.9549C3.19427 20.7703 2.78923 20.0525 2.96792 19.3512L2.9719 19.3553ZM5.17579 5.16387L3.77801 10.9307C3.65888 11.427 3.18633 11.7469 2.6979 11.6648L0.795798 11.3367C0.23986 11.2424 -0.113557 10.6682 0.0333693 10.1062L1.01817 6.35742C1.39542 4.93008 2.65025 3.9375 4.08377 3.9375H4.25055C4.87003 3.9375 5.32669 4.54043 5.17579 5.15977V5.16387Z" fill="#966808"/>
</svg>
